<svg xmlns="http://www.w3.org/2000/svg" version="1.1" xmlns:xlink="http://www.w3.org/1999/xlink" xmlns:svgjs="http://svgjs.dev/svgjs" width="100%" height="100%" viewBox="0 0 1000 600">
<g>
<rect width="333.3333333333333" height="333.3333333333333" rx="13.333333333333334" ry="13.333333333333334" y="77.77780045403293" fill="#6366f1" transform="matrix(2.25000013732911,0,0,2.25000013732911,0,-250.00003738403575)" x="55.555564880371094"/>
<path d="M157.9343795379275 284.2797196053757L155.79496623036675 284.2797196053757Q152.72144288711044 284.2797196053757 150.55189699775306 283.1045489153071Q148.38235110839568 281.95951080703514 146.78532427317427 280.15155589923734Q145.2184300197495 278.34360099143953 144.10352449327416 276.1137899384888Q142.98861896679884 273.8839788855382 142.2353044218831 271.77469815977406L142.2353044218831 271.77469815977406L122.106739781734 213.739345619464L119.36467483824065 213.739345619464L119.36467483824065 302.0880754471842Q119.36467483824065 305.46292460840687 118.94281869308782 308.4159176244766Q118.52096254793499 311.39904322234304 117.07459862169674 313.6891194388869Q115.65836727725511 315.9490630736342 112.85603717016849 317.27489667268594Q110.05370706308186 318.6007302717377 105.17222881202774 318.6007302717377L105.17222881202774 318.6007302717377Q99.65796634324438 318.6007302717377 96.4940452545982 317.27489667268594Q93.29999158415538 315.9490630736342 91.70296474893397 313.6891194388869Q90.13607049550919 311.39904322234304 89.71421435035637 308.4159176244766Q89.26222562340692 305.46292460840687 89.26222562340692 302.0880754471842L89.26222562340692 302.0880754471842L89.26222562340692 194.4544932696206Q89.26222562340692 189.9044734183294 89.53341885957659 185.535249057818Q89.80461209574625 181.1961572791032 91.28110860378115 177.82130811788062Q92.75760511181603 174.4163263748614 96.01192394585212 172.3673108126905Q99.23611019809155 170.28816266872303 105.17222881202774 170.28816266872303L105.17222881202774 170.28816266872303L119.57560291081705 170.28816266872303Q123.16138014461606 170.28816266872303 125.66238443373638 170.5593559048927Q128.16338872285672 170.83054914106236 130.27266944862083 172.3673108126905Q132.38195017438494 173.90407248431865 134.46109831835247 177.2789216455413Q136.5101138805233 180.6839033885605 139.01111816964362 186.86108265686974Q141.51212245876394 193.06839450697558 144.79657387459667 202.65055551830406Q148.08102529042938 212.23271652963248 152.84197321429696 226.214234483269L152.84197321429696 226.214234483269L155.58403815779033 234.7116225499187L158.14530761050392 234.7116225499187L161.52015677172653 224.10495375750483Q165.8592485504413 210.7562200215976 168.93277189369758 201.5356499918287Q172.00629523695386 192.31507996205985 174.32650403529442 186.348828766327Q176.6768454154316 180.35244498879757 178.51493290502606 177.1282587365581Q180.38315297641714 173.90407248431865 182.43216853858797 172.3673108126905Q184.5113166825555 170.83054914106236 186.95205580808252 170.5593559048927Q189.39279493360962 170.28816266872303 192.88817442201872 170.28816266872303L192.88817442201872 170.28816266872303L208.3461888836901 170.28816266872303Q214.28230749762628 170.28816266872303 217.50649374986574 172.3673108126905Q220.73068000210517 174.4163263748614 222.2373090919367 177.82130811788062Q223.71380559997158 181.1961572791032 223.98499883614124 185.535249057818Q224.2260594905143 189.9044734183294 224.2260594905143 194.4544932696206L224.2260594905143 194.4544932696206L224.2260594905143 302.0880754471842Q224.2260594905143 305.46292460840687 223.8042033453615 308.4159176244766Q223.38234720020867 311.39904322234304 221.78532036498723 313.6891194388869Q220.21842611156245 315.9490630736342 217.02437244111965 317.27489667268594Q213.86045135247343 318.6007302717377 208.3461888836901 318.6007302717377L208.3461888836901 318.6007302717377Q203.46471063263598 318.6007302717377 200.66238052554937 317.27489667268594Q197.86005041846275 315.9490630736342 196.41368649222446 313.6891194388869Q194.99745514778286 311.39904322234304 194.57559900263 308.4159176244766Q194.1537428574772 305.46292460840687 194.1537428574772 302.0880754471842L194.1537428574772 302.0880754471842L194.1537428574772 213.739345619464L191.1706172596108 213.739345619464L171.28311327383477 271.77469815977406Q170.40926840173245 273.8839788855382 169.35462803885042 276.1137899384888Q168.29998767596834 278.34360099143953 166.70296084074693 280.15155589923734Q165.13606658732215 281.95951080703514 162.9966532797614 283.1045489153071Q160.8873725539973 284.2797196053757 157.9343795379275 284.2797196053757L157.9343795379275 284.2797196053757ZM355.1822599786698 263.7292988200737L355.1822599786698 308.8679063514261Q355.1822599786698 310.2238725322744 354.9110667425001 312.0318274400722Q354.63987350633045 313.83978234787 353.5249679798552 315.46694176488813Q352.41006245337985 317.1242337637028 350.3007817276157 318.26927187197475Q348.1915010018515 319.4444425620434 344.5755911862559 319.4444425620434L344.5755911862559 319.4444425620434Q340.5679578073041 319.4444425620434 338.21761642716694 318.329537035568Q335.8974076288264 317.21463150909267 334.6619717751646 315.5874720920747Q333.4566685032993 313.93018009326 333.09507752173977 312.15235776725876Q332.70335395838356 310.34440285946096 332.70335395838356 308.8679063514261L332.70335395838356 308.8679063514261L332.70335395838356 302.509931592337Q327.64108021654965 310.012944459698 319.74634378583255 314.743759801769Q311.85160735511533 319.4444425620434 300.3108285270059 319.4444425620434L300.3108285270059 319.4444425620434Q298.2919455466317 319.4444425620434 294.0432515133068 319.143116744077Q289.8246900617786 318.8116583443141 284.5213556655716 317.42555958166906Q279.2180212693647 316.06959340082074 273.6133610551915 313.2973958755307Q267.9785682592216 310.55533093203735 263.36828324433714 305.61358751739Q258.7579982294527 300.7019766845392 255.80500521338294 293.34962672616143Q252.85201219731317 285.96714418598697 252.85201219731317 275.3906079753697L252.85201219731317 275.3906079753697L252.85201219731317 216.05955441780455Q252.85201219731317 207.38137086037503 254.96129292307728 200.69193770152307Q257.07057364884145 194.03263712446775 260.50568797365725 189.0908937098204Q263.97093488026974 184.1792828769696 268.40042440437446 180.8345662975437Q272.86004651027565 177.48984971811768 277.5305966887534 175.26003866516703L277.5305966887534 175.26003866516703Q288.3180609719471 170.19776492333312 302.2091811801937 169.4444503784174L302.2091811801937 169.4444503784174Q313.9608880808795 169.4444503784174 322.3377458203428 172.0961175765209Q330.71460355980594 174.74778477462434 336.5301918465557 178.96634622615255Q342.3457801333053 183.21504025947746 345.8411596217144 188.57863981927764Q349.33653911012357 193.9121067972812 351.2650243451079 199.4263692660646Q353.1633769982956 204.94063173484793 353.7358960524316 210.00290547668183Q354.3385476883642 215.09531180031237 354.3385476883642 218.8016193612979L354.3385476883642 218.8016193612979Q354.3385476883642 220.3986461965193 354.06735445219454 222.68872241306323Q353.79616121602476 224.94866604781052 352.19913438080346 227.027814191778Q350.60210754558204 229.07682975394889 347.16699322076613 230.52319368018712Q343.73187889595033 231.93942502462872 337.37390413686126 231.93942502462872L337.37390413686126 231.93942502462872Q335.14409308391066 231.93942502462872 331.91990683167126 231.66823178845905Q328.69572057943174 231.42717113408602 325.7125949815653 230.34239818940736Q322.75960196549556 229.28775782652528 320.6503212397314 227.23874226435439Q318.51090793217065 225.1595941203869 318.51090793217065 221.57381688658788L318.51090793217065 221.57381688658788Q318.51090793217065 215.8486263452281 317.8178585508482 211.32873907573358Q317.1549417513223 206.83898438803564 315.3469868435245 203.67506329938945Q313.5390319357266 200.48100962894662 310.3751108470805 198.85385021192863Q307.18105717663764 197.19655821311395 302.2091811801937 197.19655821311395L302.2091811801937 197.19655821311395Q297.02637711117325 197.19655821311395 294.19391442228994 199.30583893887805Q291.3915843152034 201.4452522464388 290.12601587974495 203.97638911735575L290.12601587974495 203.97638911735575Q288.64951937171 206.95951471522218 288.4385912991336 210.7562200215976L288.4385912991336 210.7562200215976L288.4385912991336 278.5545290640159Q288.4385912991336 281.95951080703514 289.64389457099884 284.9125038231049Q290.8793304246607 287.86549683917474 293.1091414776113 290.09530789212533Q295.30881994876535 292.32511894507604 298.352210710225 293.5906873805345Q301.365468889888 294.856255815993 304.95124612368704 294.856255815993L304.95124612368704 294.856255815993Q309.19994015701195 294.856255815993 312.63505448182775 293.0181683263985Q316.07016880664366 291.1499482550074 318.8423663319336 288.04629232995444Q321.58443127542694 284.9125038231049 323.7539771647844 280.93500302594975Q325.9235230541417 276.9575022287945 327.64108021654965 272.61841045007975L327.64108021654965 272.61841045007975L317.45626756928857 272.61841045007975Q314.3827442260323 272.3170846321134 312.06253542769184 271.02138361485834L312.06253542769184 271.02138361485834Q309.92312212013104 269.96674325197625 308.295962703113 267.8574625262121Q306.668803286095 265.74818180044804 306.668803286095 262.04187423946246L306.668803286095 262.04187423946246Q306.668803286095 258.00410827871406 308.295962703113 255.8345623893566Q309.92312212013104 253.6650164999992 312.06253542769184 252.61037613711719L312.06253542769184 252.61037613711719Q314.3827442260323 251.43520544704856 317.45626756928857 251.22427737447217L317.45626756928857 251.22427737447217L344.9974473314087 251.22427737447217Q345.75076187632453 251.22427737447217 347.3779212933425 251.49547061064183Q349.0352132921572 251.7666638468115 350.78290303636174 253.03223228226997Q352.5305927805663 254.29780071772845 353.85642637961814 256.79880500684885Q355.1822599786698 259.26967671417253 355.1822599786698 263.7292988200737L355.1822599786698 263.7292988200737Z " fill="#ffffff" transform="matrix(2.25000013732911,0,0,2.25000013732911,0,-250.00003738403575)"/>
<path d="MNaN 244.4444580078119 " fill="#ffffff" transform="matrix(2.25000013732911,0,0,2.25000013732911,0,-250.00003738403575)"/>
</g>
</svg>